<?xml version="1.0" standalone="no"?>
<!DOCTYPE svg PUBLIC "-//W3C//DTD SVG 20010904//EN"
 "http://www.w3.org/TR/2001/REC-SVG-20010904/DTD/svg10.dtd">
<svg version="1.0" xmlns="http://www.w3.org/2000/svg"
 width="318.000000pt" height="318.000000pt" viewBox="0 0 318.000000 318.000000"
 preserveAspectRatio="xMidYMid meet">
<metadata>
Created by potrace 1.11, written by Peter Selinger 2001-2013
</metadata>
<g transform="translate(0.000000,318.000000) scale(0.100000,-0.100000)"
fill="#000000" stroke="none">
<path d="M433 3158 c-13 -6 -23 -20 -23 -31 0 -31 63 -83 117 -96 49 -12 173
-69 173 -80 0 -3 -44 -6 -97 -6 -54 0 -120 -4 -148 -8 -27 -5 -66 -10 -85 -13
-111 -15 -140 -35 -140 -96 0 -21 3 -38 7 -38 3 0 31 12 62 27 48 23 73 27
171 31 63 2 113 2 110 -1 -3 -3 -41 -7 -85 -8 -115 -3 -219 -43 -298 -113 -32
-29 -35 -56 -7 -81 19 -17 21 -17 73 4 57 23 243 81 261 81 25 0 -35 -31 -99
-52 -108 -33 -228 -117 -261 -180 -16 -30 -19 -74 -5 -82 4 -3 50 19 100 49
51 30 91 51 89 46 -2 -5 -32 -30 -67 -57 -37 -28 -73 -65 -84 -86 -20 -40 -35
-118 -22 -118 4 0 21 12 38 26 39 33 47 16 14 -28 -33 -43 -97 -154 -97 -167
0 -28 52 2 131 76 97 91 125 109 60 38 -67 -72 -116 -158 -140 -242 -8 -27 -7
-31 7 -26 10 4 30 17 46 30 30 25 48 24 26 -2 -23 -27 -4 -48 38 -42 32 4 40
1 48 -17 5 -11 20 -23 33 -24 13 -2 25 -11 28 -21 2 -9 21 -25 41 -36 l37 -20
-3 -93 c-2 -50 1 -92 5 -92 5 0 19 7 31 16 21 14 25 14 56 -5 18 -11 42 -22
54 -24 12 -2 32 -12 44 -24 13 -11 33 -26 46 -32 29 -15 28 -21 -14 -76 -31
-42 -34 -49 -21 -62 13 -13 23 -11 84 15 l69 30 65 -59 c38 -35 73 -59 86 -59
17 0 30 -14 53 -52 16 -29 33 -67 36 -85 10 -54 64 -83 64 -35 0 25 36 45 59
32 11 -5 21 -14 23 -19 1 -6 16 -12 32 -15 17 -3 34 -12 38 -20 17 -30 40 -46
67 -46 25 0 51 -15 51 -31 0 -7 -249 -131 -347 -173 -95 -40 -129 -41 -224 -5
-104 38 -126 35 -81 -9 37 -37 66 -53 140 -76 28 -10 52 -21 52 -24 0 -15
-159 -112 -183 -112 -22 0 -71 -46 -63 -59 8 -12 32 -11 110 4 26 5 28 4 16
-10 -24 -28 2 -39 52 -22 23 9 63 18 88 22 24 3 50 11 57 17 16 13 18 -3 2
-19 -6 -6 -7 -13 -2 -16 16 -10 76 -20 117 -20 l39 0 -34 -29 c-32 -26 -63
-39 -131 -53 -16 -3 -28 -12 -28 -21 0 -18 58 -44 100 -44 61 0 150 63 200
140 32 50 48 65 36 34 -9 -24 3 -35 25 -23 15 7 24 7 35 -2 21 -18 17 -38 -14
-67 -29 -27 -32 -52 -7 -52 13 0 58 47 82 86 11 18 12 18 12 -4 1 -15 8 -26
22 -29 12 -4 22 -17 26 -34 3 -16 10 -29 14 -29 5 0 23 29 40 64 17 35 41 74
55 87 34 32 30 9 -6 -36 -33 -41 -36 -50 -19 -61 6 -3 24 7 40 22 l30 29 -11
-29 c-7 -20 -8 -32 0 -40 17 -17 11 -43 -25 -105 -40 -68 -44 -97 -15 -106 22
-7 26 -25 9 -42 -19 -19 -1 -35 25 -21 44 25 114 83 130 108 l15 25 1 -29 c0
-24 2 -26 14 -16 8 6 20 27 26 46 14 42 26 43 35 4 8 -35 37 -46 79 -31 42 16
49 14 43 -16 -11 -60 12 -66 99 -28 31 14 63 25 70 25 7 0 20 13 29 30 18 35
45 31 45 -7 0 -28 26 -83 40 -83 6 0 10 -4 10 -10 0 -5 -6 -10 -14 -10 -22 0
-76 -59 -76 -83 0 -13 11 -34 25 -47 28 -26 31 -23 14 14 -7 14 -9 32 -5 42 6
15 8 15 27 -2 21 -19 21 -19 53 19 34 41 47 45 67 21 11 -14 11 -18 -3 -28
-44 -32 -42 -117 3 -129 19 -5 20 -4 4 20 -14 21 -15 30 -4 54 11 29 12 29 26
9 19 -27 23 -26 69 15 37 33 41 34 94 28 30 -3 60 -10 66 -15 6 -4 19 -6 28
-2 12 5 18 -1 22 -25 7 -33 24 -33 24 0 0 19 4 20 39 14 24 -4 42 -2 46 4 7
12 46 15 44 4 -1 -5 -1 -17 0 -28 2 -19 2 -19 16 -2 17 24 1 67 -26 67 -9 0
-32 19 -50 41 -32 41 -33 41 -85 35 -48 -5 -54 -4 -72 19 -11 14 -35 28 -53
31 -63 12 -85 30 -97 76 -10 42 -27 124 -36 181 -9 55 -39 144 -78 237 -23 52
-43 112 -46 134 -3 33 0 43 31 75 19 20 56 68 82 106 60 89 90 121 140 153 52
34 142 39 215 12 27 -10 50 -16 50 -14 0 16 86 -44 110 -78 36 -49 37 -62 8
-82 -33 -23 -2 -20 49 5 49 24 66 63 50 114 -5 17 -11 68 -12 115 -3 111 -23
153 -122 255 -83 85 -151 128 -260 163 -60 20 -149 36 -188 34 -39 -2 -43 13
-40 156 1 75 6 146 11 158 26 59 118 134 165 134 22 0 29 5 29 18 0 28 -32 52
-69 52 -18 0 -46 9 -61 20 -44 32 -102 48 -161 47 -45 -2 -54 -5 -51 -19 2
-12 -4 -18 -18 -18 -11 0 -21 1 -22 2 -2 1 -13 -4 -25 -11 -19 -10 -21 -15
-11 -30 9 -15 5 -24 -28 -54 -21 -20 -47 -37 -56 -37 -21 0 -32 -17 -16 -23
10 -4 9 -8 -2 -16 -8 -6 -15 -17 -15 -25 0 -13 -162 -165 -177 -166 -5 0 -8 9
-8 19 0 33 -60 193 -92 246 -53 87 -89 126 -182 195 -115 85 -335 311 -411
423 -37 55 -69 92 -90 101 -44 21 -95 12 -125 -23 -41 -47 -56 -46 -98 7 -73
94 -162 156 -314 220 -81 33 -118 38 -155 20z"/>
</g>
</svg>
